<svg width="1124" height="848" viewBox="0 0 1124 848" fill="none" xmlns="http://www.w3.org/2000/svg">
<g clipPath="url(#clip0_12163_13105)">
<path d="M1094.73 517.882C1086.36 553.176 1055.23 581.379 1016.08 601.87C945.031 639.029 865.481 659.619 785.421 662.081C702.611 664.555 625.836 676.574 550.863 714.784C508.546 736.415 467.471 763.222 420.646 771.274C384.08 777.593 345.101 771.657 312.967 752.869C280.184 733.821 255.057 701.703 244.56 665.231C237.278 640.219 236.731 613.838 230.801 588.464C216.458 527.364 168.46 520.22 116.082 501.058C98.0755 494.431 79.7259 487.606 65.1205 475.283C36.5593 450.9 28.4708 408.273 38.1812 372.04C47.8917 335.807 72.9115 305.329 101.257 280.773C208.551 187.95 375.159 150.991 513.624 142.592C660.808 133.741 794.331 152.325 913.493 245.498C983.175 300.033 1039.17 370.557 1082.17 447.752C1096.46 473.495 1099.54 496.879 1094.73 517.882Z" fill="#FDF0F0"/>
</g>
<g clipPath="url(#clip1_12163_13105)">
<path d="M569.166 256.083C587.32 276.211 606.839 295.395 629.611 309.547C659.518 328.207 693.728 337.432 725.734 351.689C759.314 366.68 791.216 387.856 813.882 417.837C836.549 447.819 849.037 487.445 842.111 524.975C838.753 543.32 830.987 560.407 822.067 576.551C807.061 603.807 787.858 629.596 761.413 644.692C738.222 657.9 711.358 661.884 685.018 664.085C644.932 667.335 604.635 667.021 564.444 666.706C541.882 666.496 519.32 666.287 496.864 666.077C470.209 665.867 441.351 664.819 420.679 647.312C403.259 632.531 395.388 609.049 388.672 586.615C371.882 531.264 356.771 474.76 352.364 416.894C347.851 359.027 354.567 299.064 379.648 247.277C388.462 229.141 400.006 211.53 416.796 201.361C437.888 188.677 464.438 189.515 487.419 197.797C510.401 206.079 530.654 220.86 550.487 235.536L569.166 256.083Z" fill="#ADADD7"/>
<path d="M458.352 248.221C480.284 221.384 520.475 223.481 539.784 252.414C539.889 252.624 539.994 252.728 540.099 252.938C552.167 271.179 561.401 291.83 575.883 307.974C593.827 328.102 618.383 339.948 642.309 351.27C666.235 362.591 690.79 374.437 708.84 394.46C726.889 414.483 721.327 438.699 710.728 463.858C706.216 474.551 698.451 483.357 689.846 490.695C642.099 531.474 555.945 551.811 499.803 525.184C483.537 517.427 475.247 515.645 466.222 491.953C459.401 474.131 463.809 445.513 455.833 428.215C438.414 390.581 424.877 349.383 428.13 307.765C429.704 287.952 443.975 265.832 458.352 248.221Z" fill="#9798CB"/>
<path d="M625.204 504.218C627.093 509.669 625.624 516.274 621.636 520.152C617.124 524.555 608.938 522.563 604.846 527.49C575.358 563.552 561.191 555.48 559.198 555.9C557.204 556.319 554.895 555.271 554.266 553.174C553.636 551.077 552.272 550.973 550.907 548.771C549.543 546.465 545.766 544.263 544.821 540.49C544.087 537.869 545.975 535.248 548.284 534.095C550.488 532.942 553.111 532.837 555.42 532.103C560.667 530.635 564.969 526.547 569.062 522.668C585.957 506.524 602.537 489.856 618.698 472.874L639.37 487.131L625.204 504.218Z" fill="#686867"/>
<path d="M563.393 644.901C582.282 646.579 601.171 647.312 620.06 647.103C638.949 646.893 657.838 645.74 676.622 643.538C695.196 641.442 713.875 638.507 732.134 634.313C740.739 632.322 749.239 629.91 757.214 626.032C764.455 622.572 771.171 617.855 777.153 612.089C788.696 601.082 797.511 587.035 804.751 572.358C805.696 570.471 806.535 568.584 807.375 566.697C808.109 565.125 810.208 566.488 809.473 568.06C802.548 583.156 794.152 597.727 783.134 609.678C777.677 615.549 771.591 620.685 764.875 624.774C757.214 629.386 748.819 632.531 740.424 634.837C731.609 637.249 722.48 639.031 713.455 640.603C704.011 642.28 694.671 643.748 685.122 645.006C666.128 647.417 647.029 648.885 627.825 649.409C608.727 649.933 589.523 649.409 570.424 647.941C568.011 647.732 565.702 647.522 563.288 647.312C561.819 647.417 561.819 644.796 563.393 644.901Z" fill="#771F00"/>
<path d="M685.227 498.452C693.517 503.065 701.493 508.202 709.048 513.967C716.709 519.733 723.95 526.023 730.875 532.837C737.696 539.651 744.203 546.884 750.079 554.642C756.061 562.399 761.517 570.471 766.45 579.067C771.801 588.292 776.734 598.147 778.937 608.944C779.252 610.307 779.462 611.565 779.567 612.928C779.672 613.662 779.357 614.395 778.727 614.605C778.098 614.815 777.258 614.395 777.153 613.662C775.684 602.864 771.172 592.905 766.03 583.68C761.308 575.189 755.956 567.012 750.184 559.254C744.413 551.497 738.116 544.159 731.4 537.345C724.789 530.531 717.653 524.241 710.308 518.475C702.857 512.709 694.987 507.363 686.906 502.75C685.857 502.226 684.913 501.597 683.863 501.073C683.234 500.759 683.129 499.815 683.443 499.186C683.863 498.347 684.598 498.138 685.227 498.452Z" fill="#771F00"/>
<path d="M408.294 588.293C410.918 595.736 414.381 602.864 418.578 609.364C422.776 615.863 427.813 621.838 433.48 627.08C439.251 632.426 445.652 636.934 452.578 640.393C459.924 644.167 467.794 646.788 475.77 648.151C483.745 649.619 492.035 649.828 500.115 648.78C501.06 648.675 502.004 648.57 502.949 648.361C503.578 648.256 504.313 648.57 504.523 649.304C504.733 649.933 504.313 650.877 503.683 650.981C495.393 652.344 486.998 652.449 478.603 651.296C470.208 650.143 462.128 647.732 454.362 644.167C447.017 640.813 440.196 636.305 434.004 630.959C428.023 625.822 422.776 619.847 418.159 613.242C413.541 606.638 409.763 599.405 406.93 591.752C406.615 590.808 406.196 589.865 405.881 589.026C405.671 588.397 406.091 587.559 406.72 587.349C407.56 587.139 408.084 587.664 408.294 588.293Z" fill="#771F00"/>
<path d="M435.893 603.074C441.455 607.057 447.436 610.517 453.628 613.242C459.924 615.968 466.43 618.064 473.041 619.427C476.714 620.161 480.387 620.685 484.165 621C484.794 621.105 485.424 621.629 485.424 622.363C485.424 623.096 484.899 623.725 484.165 623.725C477.344 623.201 470.523 621.838 463.807 619.847C457.196 617.855 450.689 615.129 444.603 611.67C441.14 609.783 437.782 607.686 434.634 605.38C434.109 604.961 433.794 604.227 434.214 603.493C434.529 602.969 435.263 602.654 435.893 603.074Z" fill="#771F00"/>
<path d="M430.542 199.265C436.733 200.103 442.925 201.571 448.906 203.563C454.888 205.554 460.659 208.07 466.326 211.111C471.888 214.046 477.239 217.505 482.172 221.489C487.209 225.368 491.931 229.77 496.233 234.488C500.536 239.205 504.523 244.342 507.986 249.793C508.406 250.422 508.826 251.156 509.246 251.785C509.665 252.414 509.351 253.253 508.826 253.672C508.196 254.091 507.462 253.777 507.147 253.148C503.894 247.801 500.116 242.769 496.023 238.052C491.931 233.335 487.418 229.037 482.591 225.158C477.764 221.174 472.517 217.715 467.165 214.675C461.814 211.635 456.252 209.119 450.48 207.022C444.604 204.925 438.622 203.353 432.536 202.305C431.801 202.2 431.172 202.095 430.437 201.99C429.807 201.885 429.178 201.466 429.178 200.627C429.283 199.998 429.912 199.16 430.542 199.265Z" fill="#771F00"/>
<path d="M367.054 376.639C367.159 384.396 367.474 392.154 367.999 399.911C368.523 407.669 369.153 415.426 370.097 423.184C370.937 430.836 371.986 438.489 373.246 446.037C374.505 453.689 375.869 461.237 377.548 468.89C379.122 476.438 380.906 483.986 382.9 491.429C383.11 492.372 383.425 493.316 383.634 494.259C384.054 495.936 381.641 496.67 381.221 494.993C379.227 487.55 377.338 480.002 375.764 472.349C374.085 464.802 372.616 457.149 371.357 449.496C370.097 441.739 368.943 434.086 367.999 426.224C367.054 418.466 366.32 410.709 365.795 402.951C365.27 395.194 364.851 387.436 364.746 379.574C364.746 378.63 364.746 377.582 364.641 376.639C364.641 374.961 367.054 374.961 367.054 376.639Z" fill="#771F00"/>
<path d="M375.345 387.017C376.814 400.645 378.808 414.273 381.117 427.796C381.746 431.675 382.481 435.449 383.215 439.223C383.32 439.957 383.005 440.69 382.376 440.9C381.746 441.11 381.012 440.69 380.802 439.957C378.178 426.329 375.975 412.491 374.191 398.653C373.666 394.774 373.246 390.791 372.826 386.912C372.722 386.178 373.456 385.549 374.086 385.549C374.82 385.654 375.24 386.283 375.345 387.017Z" fill="#771F00"/>
<path d="M383.95 271.912C381.011 279.251 378.388 286.798 376.079 294.556C373.771 302.313 371.777 310.176 370.203 318.143C369.258 322.651 368.524 327.054 367.894 331.666C367.789 332.4 366.95 332.819 366.32 332.61C365.585 332.4 365.375 331.666 365.48 330.932C366.635 322.86 368.209 314.893 370.203 306.926C372.092 299.064 374.4 291.201 377.024 283.549C378.493 279.146 380.172 274.848 381.851 270.55C382.166 269.921 383.005 269.711 383.53 270.026C384.159 270.445 384.159 271.284 383.95 271.912Z" fill="#771F00"/>
<path d="M390.875 278.831C388.042 289.524 385.208 300.322 382.48 311.014C381.745 314.055 380.906 316.99 380.171 320.03C379.752 321.707 377.338 320.973 377.758 319.296C380.591 308.603 383.424 297.806 386.153 287.113C386.887 284.073 387.727 281.138 388.462 278.098C388.881 276.525 391.295 277.259 390.875 278.831Z" fill="#771F00"/>
<path d="M683.444 518.999C684.283 524.765 688.69 529.587 693.937 530.845C699.919 532.208 705.9 529.168 711.882 528.224C726.573 525.813 741.16 535.982 755.956 534.409C758.055 534.2 770.752 510.822 769.913 507.048C769.283 504.428 766.45 503.17 764.036 503.379C761.518 503.589 759.314 504.847 756.9 505.581C751.653 507.153 746.092 506 740.74 504.742C718.598 499.815 696.666 494.364 674.734 488.284L663.4 511.766L683.444 518.999Z" fill="#686867"/>
<path d="M493.19 508.726C504.733 522.249 523.622 526.337 542.721 525.499C563.289 524.555 584.067 511.556 591.307 490.695C617.437 504.218 645.141 514.282 673.474 520.572C676.307 509.25 680.505 498.243 685.752 488.074C680.295 485.873 674.943 483.671 669.486 481.47C686.906 474.446 703.172 464.382 717.653 451.698C726.888 443.626 735.493 434.191 740.11 422.45C744.727 410.604 744.412 395.928 737.067 385.969C727.727 373.389 710.622 371.816 695.721 372.55C657.628 374.437 619.956 384.291 585.326 401.484C583.647 402.322 581.863 403.266 579.974 403.371C577.246 403.58 574.727 402.322 572.209 401.169C559.931 394.879 547.863 387.646 534.641 384.501C521.419 381.251 506.412 382.719 496.023 392.258C488.153 399.492 480.807 412.596 476.82 422.974C461.919 461.866 491.406 506.629 493.19 508.726Z" fill="#A9396D"/>
<path d="M623.735 278.517C607.47 264.26 589.84 250.946 569.167 242.35C548.704 233.859 492.667 230.924 476.926 241.302C446.075 261.639 426.766 336.174 429.179 353.052C431.488 369.615 434.112 388.17 446.704 398.968C457.723 408.298 475.667 400.75 478.186 401.903C479.76 408.822 481.124 415.845 481.858 423.603C516.803 420.668 545.556 421.401 580.081 414.902C583.858 414.168 587.846 413.329 590.679 410.918C593.828 408.298 594.877 404.314 595.717 400.54C601.173 376.848 603.377 352.527 602.223 328.416C623.63 342.778 645.038 357.035 666.55 371.397C674.315 363.64 681.451 355.253 687.852 346.447C668.963 321.917 647.451 299.169 623.735 278.517Z" fill="#F7F4EF"/>
<path d="M668.332 409.136C662.665 414.273 657.313 419.619 652.067 425.175C646.82 430.731 641.783 436.602 637.06 442.577C634.332 445.932 631.709 449.391 629.19 452.956C628.77 453.48 627.826 453.375 627.406 452.956C626.881 452.431 626.986 451.593 627.406 451.069C631.918 444.884 636.746 438.803 641.783 432.933C646.82 427.062 651.962 421.506 657.418 416.16C660.462 413.12 663.61 410.185 666.758 407.249C667.283 406.83 668.017 406.725 668.542 407.249C668.857 407.773 668.857 408.717 668.332 409.136Z" fill="#BF9032"/>
<path d="M659.623 410.394C658.154 414.168 656.685 417.942 655.216 421.716C654.901 422.345 654.062 422.555 653.537 422.24C652.907 421.821 652.802 421.087 653.117 420.353C654.586 416.579 656.056 412.805 657.525 409.031C657.735 408.402 658.679 408.193 659.204 408.507C659.833 409.031 659.833 409.765 659.623 410.394Z" fill="#BF9032"/>
<path d="M678.091 485.348C675.048 493.211 672.215 501.073 669.486 509.145C668.752 511.451 668.017 513.653 667.283 515.959C667.073 516.693 666.443 517.112 665.709 516.903C665.079 516.693 664.659 515.959 664.869 515.225C667.388 507.153 670.221 499.186 673.159 491.324C673.999 489.122 674.838 486.921 675.678 484.719C675.888 484.09 676.517 483.566 677.252 483.776C677.776 483.881 678.301 484.719 678.091 485.348Z" fill="#BF9032"/>
<path d="M567.486 399.387C567.486 399.387 577.036 397.71 578.085 398.024C579.134 398.339 589.733 402.742 595.715 400.33C601.067 398.234 609.147 396.661 614.499 398.548C616.073 399.073 617.332 400.121 618.906 400.645C620.165 400.959 624.048 400.855 625.937 400.016C626.462 399.702 626.567 398.863 626.042 398.548C622.684 396.452 616.597 394.145 613.869 392.049C617.857 395.194 627.511 394.67 632.443 393.936C633.073 393.831 633.283 392.887 632.758 392.468C629.295 389.533 621.005 388.904 616.912 386.912C621.425 390.686 627.091 392.678 632.758 392.468C633.388 392.468 633.702 391.525 633.283 391.001C628.141 385.864 622.159 381.671 615.758 378.63C620.27 381.461 625.202 383.453 630.344 384.606C631.184 384.816 631.604 383.662 630.974 383.138C625.307 378.421 619.011 374.647 612.82 370.768C610.406 369.301 607.888 367.728 605.054 367.414C599.283 366.68 580.709 379.259 570.005 375.171L567.486 399.387Z" fill="#AA6963"/>
<path d="M615.549 383.033C621.11 385.549 626.777 387.96 632.339 390.476C632.968 390.791 633.388 391.42 633.178 392.154C632.968 392.783 632.234 393.412 631.604 393.097C626.042 390.581 620.376 388.17 614.814 385.654C614.184 385.34 613.765 384.711 613.975 383.977C614.184 383.348 614.919 382.719 615.549 383.033Z" fill="#7C4441"/>
<path d="M614.184 378.63C617.122 378.84 619.85 380.098 622.579 381.356C625.097 382.404 627.721 383.558 630.344 383.138C630.974 383.033 631.708 383.348 631.918 384.082C632.128 384.711 631.708 385.654 631.079 385.759C628.035 386.283 625.202 385.444 622.474 384.186C619.85 383.033 617.122 381.566 614.289 381.356C613.659 381.356 613.029 380.727 613.029 379.993C613.029 379.259 613.554 378.526 614.184 378.63Z" fill="#7C4441"/>
<path d="M616.073 392.049C620.69 392.992 625.412 393.202 630.134 392.887C630.764 392.887 631.394 393.516 631.394 394.25C631.394 394.984 630.869 395.508 630.134 395.613C625.202 395.928 620.27 395.613 615.443 394.67C614.813 394.565 614.394 393.621 614.603 392.992C614.708 392.258 615.443 391.944 616.073 392.049Z" fill="#7C4441"/>
<path d="M615.129 375.59C615.549 378.526 616.073 381.356 616.493 384.291C616.913 387.227 617.123 390.267 617.018 393.202C616.913 394.879 614.499 394.984 614.499 393.202C614.604 390.372 614.394 387.541 614.079 384.815C613.66 381.985 613.135 379.155 612.715 376.219C612.61 375.486 612.925 374.752 613.555 374.542C614.184 374.542 615.024 374.857 615.129 375.59Z" fill="#7C4441"/>
<path d="M553.005 409.765L645.036 407.249L643.671 401.274L552.795 403.58L553.005 409.765Z" fill="#37373F"/>
<path d="M723.95 307.765L645.771 311.224C639.474 311.539 634.227 317.409 633.073 325.586L624.258 386.178C622.579 397.605 629.505 408.298 638.32 407.878L716.499 404.419C722.795 404.104 728.042 398.234 729.196 390.057L738.011 329.465C739.585 318.038 732.764 307.45 723.95 307.765Z" fill="#4D4E59"/>
<path d="M618.277 404.629C613.869 404.838 609.462 405.048 605.055 405.258C603.795 405.362 602.536 405.362 601.277 405.467C600.857 405.467 600.332 405.258 600.437 404.943C600.437 404.629 600.752 404.314 601.277 404.314C605.684 404.104 610.092 403.895 614.499 403.685C615.758 403.58 617.018 403.58 618.277 403.475C618.697 403.475 619.221 403.685 619.116 404C619.116 404.314 618.697 404.629 618.277 404.629Z" fill="#443822"/>
<path d="M591.203 405.362C588.265 405.467 585.327 405.572 582.388 405.782C581.968 405.782 581.444 405.572 581.549 405.258C581.549 404.943 581.864 404.629 582.388 404.629C585.327 404.524 588.265 404.419 591.203 404.209C591.623 404.209 592.147 404.419 592.043 404.733C591.938 405.048 591.623 405.362 591.203 405.362Z" fill="#443822"/>
<path d="M574.833 406.516C571.055 406.725 567.277 406.83 563.5 407.04C563.08 407.04 562.555 406.83 562.66 406.516C562.66 406.201 562.975 405.887 563.5 405.887C567.277 405.677 571.055 405.572 574.833 405.362C575.253 405.362 575.777 405.572 575.672 405.887C575.672 406.201 575.253 406.516 574.833 406.516Z" fill="#443822"/>
<path d="M625.203 396.032C625.308 396.557 625.413 396.976 625.623 397.395C625.518 397.081 625.623 397.5 625.728 397.5C625.728 397.605 625.833 397.71 625.833 397.71C625.937 397.919 626.042 398.129 626.147 398.339C626.357 398.758 626.567 399.073 626.777 399.492C626.672 399.282 626.882 399.597 626.882 399.597C626.987 399.701 626.987 399.806 627.092 399.911C627.197 400.121 627.302 400.226 627.512 400.435C627.826 400.75 628.036 401.064 628.351 401.379C628.456 401.484 628.456 401.484 628.351 401.379L628.456 401.484C628.561 401.484 628.561 401.588 628.666 401.588C628.876 401.693 628.981 401.903 629.191 402.008C629.505 402.217 629.82 402.427 630.135 402.637C630.24 402.637 630.24 402.637 630.135 402.637C630.135 402.637 630.24 402.637 630.24 402.742C630.345 402.742 630.45 402.846 630.555 402.846C630.765 402.951 630.87 402.951 631.079 403.056C631.499 403.161 631.814 403.895 631.709 404.419C631.604 405.048 631.184 405.467 630.66 405.258C628.141 404.419 625.937 402.217 624.678 399.387C624.258 398.548 623.944 397.71 623.734 396.766C623.629 396.242 623.839 395.508 624.258 395.299C624.573 395.194 625.098 395.508 625.203 396.032Z" fill="#443822"/>
<path d="M731.085 313.74C733.708 316.256 735.282 320.449 735.177 324.747C735.072 326.005 734.968 327.263 734.548 328.416C734.338 328.941 733.708 329.15 733.393 328.836C732.974 328.521 732.869 327.892 732.974 327.263C733.079 327.054 732.974 327.263 732.974 327.263C732.974 327.158 732.974 327.158 732.974 327.054C732.974 326.949 732.974 326.844 733.079 326.739C733.079 326.529 733.184 326.32 733.184 326.005C733.289 325.586 733.289 325.062 733.393 324.642C733.393 324.957 733.393 324.642 733.393 324.538C733.393 324.433 733.393 324.328 733.393 324.223C733.393 324.013 733.393 323.699 733.393 323.489C733.393 323.07 733.393 322.546 733.289 322.127C733.289 322.127 733.289 322.022 733.289 321.917C733.289 321.917 733.289 322.231 733.289 321.917C733.289 321.812 733.289 321.707 733.289 321.602C733.289 321.393 733.184 321.183 733.184 320.869C733.079 320.449 732.974 320.03 732.869 319.506C732.869 319.401 732.764 319.296 732.764 319.191C732.659 318.877 732.764 319.296 732.764 319.086C732.659 318.877 732.554 318.667 732.554 318.457C732.344 318.038 732.134 317.619 731.924 317.304C731.819 317.199 731.819 317.095 731.714 316.99C731.61 316.78 731.714 316.99 731.714 316.99C731.714 316.885 731.61 316.885 731.61 316.78C731.505 316.571 731.4 316.361 731.19 316.256C731.085 316.046 730.875 315.837 730.77 315.732C730.665 315.627 730.665 315.627 730.56 315.522C730.56 315.522 730.245 315.208 730.455 315.417C730.035 315.103 729.826 314.474 730.035 313.845C730.14 313.74 730.665 313.426 731.085 313.74Z" fill="#443822"/>
<path d="M724.16 386.073C724.055 390.162 721.641 393.621 718.493 394.041C718.074 394.145 717.549 393.516 717.549 392.887C717.549 392.259 717.864 391.734 718.388 391.734C718.493 391.734 718.598 391.734 718.703 391.734C718.598 391.734 718.598 391.734 718.703 391.734C718.808 391.734 719.018 391.63 719.123 391.525C719.228 391.42 719.438 391.42 719.543 391.315C719.543 391.315 719.857 391.105 719.648 391.315C719.753 391.315 719.753 391.21 719.857 391.21C720.172 391.001 720.382 390.791 720.592 390.581C720.697 390.476 720.697 390.476 720.802 390.372C720.592 390.581 720.802 390.372 720.802 390.372C720.907 390.267 721.012 390.057 721.117 389.952C721.222 389.847 721.327 389.638 721.432 389.533C721.432 389.428 721.537 389.428 721.537 389.323C721.641 389.114 721.432 389.428 721.537 389.218C721.746 388.904 721.851 388.485 721.956 388.17C721.956 388.065 721.956 387.96 722.061 387.96C722.166 387.751 722.061 388.17 722.061 387.856C722.061 387.646 722.166 387.436 722.166 387.227C722.166 387.017 722.271 386.807 722.271 386.598C722.271 386.598 722.271 386.388 722.271 386.283C722.271 386.493 722.271 386.493 722.271 386.283C722.271 386.178 722.271 386.178 722.271 386.073C722.271 385.444 722.586 384.92 723.111 384.92C723.74 384.92 724.16 385.444 724.16 386.073Z" fill="#443822"/>
<path opacity="0.51" d="M678.196 357.035C678.301 361.124 681.764 364.269 685.856 364.059C689.949 363.849 693.097 360.39 692.992 356.406C692.887 352.318 689.424 349.173 685.332 349.383C681.239 349.487 678.091 352.947 678.196 357.035Z" fill="white"/>
<path d="M572.944 489.332C592.147 476.962 611.456 464.697 630.66 452.327C609.148 429.683 584.802 410.08 558.567 394.46C550.277 389.533 541.147 387.122 532.123 383.977C515.438 378.001 492.561 394.67 487.104 402.951L476.82 422.869L492.666 467.003L572.944 489.332Z" fill="#A9396D"/>
<path d="M584.803 410.709C589.735 417.313 595.297 423.288 601.068 428.949C606.945 434.505 613.136 439.642 619.432 444.569C625.834 449.496 632.445 454.318 639.056 458.931C642.624 461.447 646.297 464.068 649.864 466.584C653.013 468.785 656.161 471.196 659.414 473.293C664.766 476.647 670.432 479.478 675.889 482.623C676.414 482.937 676.939 483.252 677.358 483.461C678.723 484.3 677.463 486.606 676.099 485.768C670.747 482.623 665.185 479.897 659.939 476.647C656.895 474.865 654.062 472.769 651.229 470.777C647.451 468.156 643.778 465.431 640 462.81C633.389 458.092 626.778 453.48 620.272 448.553C613.766 443.626 607.469 438.489 601.383 432.933C595.402 427.377 589.735 421.506 584.698 415.007C584.068 414.273 583.439 413.434 582.914 412.596C582.494 412.072 582.389 411.233 582.914 410.709C583.543 410.289 584.383 410.185 584.803 410.709Z" fill="#BF9032"/>
<path d="M515.963 441.319C520.055 446.142 524.463 450.44 529.185 454.423C534.012 458.512 539.049 462.076 544.296 465.535C549.648 468.995 555.21 472.245 560.772 475.18C566.333 478.22 572 480.945 577.667 483.776C583.228 486.502 588.895 489.017 594.457 491.638C595.191 491.953 595.821 492.267 596.555 492.582C597.185 492.896 597.29 493.84 596.975 494.469C596.555 495.203 595.926 495.203 595.296 494.993C589.735 492.372 584.068 489.751 578.506 487.131C572.839 484.405 567.068 481.574 561.506 478.639C555.839 475.704 550.278 472.454 544.821 469.1C539.469 465.745 534.327 462.076 529.395 458.092C524.568 454.109 519.846 449.811 515.648 445.093C515.123 444.464 514.599 443.94 514.074 443.311C513.654 442.787 513.549 441.948 514.074 441.424C514.599 440.795 515.438 440.795 515.963 441.319Z" fill="#BF9032"/>
<path d="M565.389 374.228C558.148 371.712 550.802 369.825 543.561 367.728C536.216 365.631 528.765 363.64 521.419 361.543C514.074 359.446 506.623 357.455 499.277 355.358C492.247 353.366 484.901 350.85 477.555 351.27C471.259 351.584 465.068 354.205 460.136 358.398C459.506 358.922 458.876 359.551 458.352 360.075C457.722 360.704 456.882 359.761 457.512 359.132C462.234 354.414 468.216 351.27 474.512 350.221C481.753 349.068 488.889 350.955 495.815 352.947C503.37 355.043 510.926 357.14 518.376 359.237C525.827 361.333 533.382 363.43 540.833 365.527C548.284 367.623 555.734 369.615 563.08 371.921C564.024 372.236 564.864 372.55 565.808 372.865C566.543 373.179 566.123 374.542 565.389 374.228Z" fill="#443822"/>
<path d="M475.036 349.383C480.073 336.069 484.376 322.336 487.839 308.498C489.518 301.58 490.882 294.661 491.406 287.532C491.931 280.613 491.931 273.695 491.197 266.881C490.357 259.228 488.783 251.575 486.474 244.342C486.16 243.503 487.419 243.189 487.629 244.027C489.727 250.527 491.302 257.341 492.141 264.26C492.981 271.179 493.295 278.097 492.876 285.121C492.456 292.25 491.302 299.169 489.727 306.087C488.153 313.111 486.16 320.03 484.061 326.949C481.962 333.868 479.653 340.682 477.24 347.496C476.925 348.334 476.61 349.173 476.295 350.012C475.876 350.536 474.721 350.116 475.036 349.383Z" fill="#443822"/>
<path d="M590.992 279.984C594.036 285.96 596.554 292.25 598.548 298.749C600.542 305.249 602.011 311.853 602.955 318.562C603.48 322.336 603.795 326.215 604.005 330.094C604.005 330.932 602.85 330.932 602.745 330.094C602.431 323.384 601.591 316.675 600.227 310.176C598.863 303.571 596.869 297.072 594.455 290.887C593.091 287.427 591.517 283.968 589.838 280.613C589.628 279.88 590.678 279.251 590.992 279.984Z" fill="#443822"/>
<path d="M602.116 284.702C602.536 292.355 601.906 300.112 600.332 307.66C600.122 308.499 598.968 308.184 599.178 307.345C600.752 299.902 601.381 292.355 600.962 284.807C600.857 283.863 602.116 283.863 602.116 284.702Z" fill="#443822"/>
<path d="M513.654 240.778C506.518 249.688 506.203 263.631 514.808 271.388C518.166 274.428 522.679 276.315 527.191 277.469C531.284 278.517 535.691 279.041 539.889 278.202C549.018 276.315 555.524 267.51 555 258.809C554.475 250.108 547.654 242.35 538.944 239.31C530.234 236.27 520.055 237.842 512.185 242.455C511.975 243.084 511.765 243.713 511.555 244.447L513.654 240.778Z" fill="#443822"/>
<path d="M586.586 149.051C587.216 146.115 587.846 143.18 587.321 140.245C586.796 137.309 584.803 134.479 582.179 134.06C579.451 133.64 576.512 136.68 577.457 139.406C578.716 136.785 578.086 133.326 576.198 131.229C574.309 129.133 571.056 128.504 568.642 129.866C568.642 125.673 566.019 121.585 562.346 120.117C558.673 118.65 554.265 119.803 551.642 123.052C549.333 118.65 543.772 117.916 539.049 118.125C535.901 118.335 532.648 118.754 530.025 120.641C527.401 122.528 525.827 126.407 527.191 129.552C522.154 129.028 517.537 134.898 518.901 140.14C512.92 139.511 507.043 145.591 507.463 152.195C504.42 153.139 501.377 154.082 498.858 156.074C496.34 158.066 494.556 161.421 494.975 164.775C495.5 168.13 498.963 170.855 501.796 169.597C499.173 168.444 496.235 171.904 496.759 174.944C497.284 177.984 500.117 179.976 502.951 180.395C497.914 185.322 496.759 194.442 500.537 200.627C497.284 203.458 495.92 208.595 497.284 212.788C498.648 217.086 502.636 220.126 506.728 220.231C507.253 223.376 509.457 226.101 512.29 226.94C515.124 227.779 518.377 226.73 520.265 224.319C521.315 227.569 524.358 229.98 527.506 230.295C530.759 230.504 534.012 228.512 535.482 225.472C540.833 228.827 548.494 226.94 552.062 221.489L586.586 149.051Z" fill="#020203"/>
<path d="M586.376 166.033C584.172 187.524 581.653 208.909 578.925 230.295C578.4 234.488 577.771 238.891 575.567 242.35C570.53 250.212 557.937 244.552 549.123 243.713L548.178 253.986C547.129 265.518 536.425 272.961 526.246 269.292C526.141 269.187 525.931 269.187 525.826 269.082C517.431 266.042 512.289 256.817 513.548 247.382C514.913 237.423 516.592 224.843 517.746 216.667C510.82 219.812 502.53 211.215 504.314 203.353C505.993 195.386 515.437 191.297 522.363 194.442L532.437 154.921C550.382 152.3 571.474 155.026 586.376 166.033Z" fill="#F6B387"/>
<path d="M549.019 243.608L524.254 238.891L547.55 251.366L549.019 243.608Z" fill="#AA7F60"/>
<path d="M513.864 197.797C517.117 200.103 519.216 203.982 519.321 208.175C519.321 208.909 518.691 209.538 518.062 209.538C517.327 209.538 516.803 208.909 516.803 208.175C516.803 207.966 516.803 207.756 516.803 207.441C516.803 207.337 516.803 207.232 516.803 207.337C516.803 207.232 516.803 207.127 516.803 207.022C516.698 206.603 516.698 206.183 516.593 205.764C516.488 205.554 516.488 205.345 516.383 205.135C516.383 205.03 516.278 204.925 516.278 204.821C516.278 204.716 516.173 204.506 516.278 204.716C516.173 204.296 515.963 203.877 515.753 203.563C515.019 202.2 513.969 200.942 512.71 200.103C512.185 199.684 511.87 198.95 512.29 198.216C512.5 197.692 513.235 197.482 513.864 197.797Z" fill="#4A2524"/>
<path d="M511.975 202.829C513.234 202.619 514.493 202.41 515.753 202.305C516.067 202.305 516.382 202.2 516.697 202.41C516.907 202.619 517.222 202.934 517.222 203.248C517.327 203.563 517.327 203.982 517.117 204.297C516.907 204.611 516.697 204.821 516.382 204.925C515.123 205.135 513.864 205.345 512.604 205.45C512.29 205.45 511.975 205.554 511.66 205.345C511.45 205.135 511.135 204.821 511.135 204.506C511.03 204.192 511.03 203.772 511.24 203.458C511.345 203.143 511.66 202.829 511.975 202.829Z" fill="#4A2524"/>
<path d="M564.34 196.853C562.975 200.942 563.29 205.659 565.074 209.538C565.494 210.481 566.019 211.425 566.648 212.264C567.383 213.207 568.222 214.046 568.852 215.199C570.111 217.4 569.692 220.126 568.117 222.013C566.333 224.319 563.5 224.843 560.877 225.263C560.247 225.368 559.513 225.053 559.303 224.319C559.093 223.69 559.513 222.747 560.142 222.642C562.136 222.327 564.445 222.013 565.914 220.44C566.438 219.811 566.963 218.973 566.963 218.239C567.068 217.296 566.543 216.562 566.019 215.723C565.284 214.78 564.55 213.941 563.92 212.997C563.29 212.159 562.871 211.11 562.451 210.167C561.611 208.07 560.982 205.869 560.877 203.563C560.667 201.047 560.982 198.426 561.716 196.12C561.926 195.386 562.556 194.967 563.29 195.176C564.025 195.386 564.55 196.224 564.34 196.853Z" fill="#4A2524"/>
<path d="M551.956 202.305C551.956 204.401 550.592 206.183 548.808 206.183C547.129 206.183 545.66 204.401 545.66 202.305C545.66 200.208 547.024 198.426 548.808 198.426C550.592 198.426 551.956 200.103 551.956 202.305Z" fill="#020203"/>
<path d="M577.456 207.337C577.456 209.433 576.092 211.215 574.308 211.215C572.629 211.215 571.16 209.433 571.16 207.337C571.16 205.24 572.524 203.458 574.308 203.458C576.092 203.458 577.456 205.24 577.456 207.337Z" fill="#020203"/>
<path d="M552.376 223.271C552.796 223.795 553.216 224.214 553.74 224.634C553.95 224.843 554.265 225.053 554.475 225.263C554.37 225.158 554.37 225.158 554.475 225.263C554.58 225.368 554.58 225.368 554.685 225.472C554.79 225.577 554.895 225.682 555.104 225.787C556.154 226.521 557.203 227.254 558.358 227.779C558.987 228.093 559.092 229.037 558.777 229.666C558.358 230.295 557.728 230.399 557.098 230.19C554.685 229.037 552.481 227.359 550.697 225.368C550.277 224.843 550.172 224.005 550.697 223.481C551.117 222.747 551.851 222.747 552.376 223.271Z" fill="#4A2524"/>
<path d="M521.629 193.918C519.635 194.652 518.481 197.168 519.11 199.265C519.74 201.361 522.048 202.724 524.042 202.095C526.246 201.466 527.505 198.74 527.505 196.329C527.505 193.918 526.561 191.507 525.616 189.306C525.826 191.717 529.394 190.668 530.444 188.572C531.913 185.532 531.598 181.548 529.709 178.823C532.227 179.032 534.851 177.355 535.9 174.839C536.95 172.323 536.53 169.178 534.746 167.186C538.839 167.081 542.721 163.727 543.666 159.429C545.974 161.316 549.437 161.316 551.641 159.219C549.857 159.638 549.332 162.364 550.382 164.041C551.431 165.614 553.425 166.243 555.209 166.243C558.882 166.348 562.555 164.88 565.178 162.154C565.283 166.767 571.999 169.073 574.623 165.404C573.153 167.186 573.363 170.122 574.937 171.694C576.511 173.266 579.345 173.057 580.814 171.275C577.666 171.904 576.616 176.726 578.4 179.556C580.289 182.387 583.857 183.225 587.005 182.806C587.845 182.701 588.789 182.492 589.314 181.653C589.734 180.919 589.209 179.556 588.369 179.661C590.468 181.863 594.456 179.661 594.981 176.621C595.505 173.476 593.721 170.436 591.518 168.235C594.666 168.968 598.129 167.396 599.808 164.356C601.487 161.421 601.172 157.227 599.073 154.607C600.647 155.76 602.956 153.978 603.166 151.986C603.376 149.889 602.116 148.002 600.752 146.639C595.505 141.293 586.69 140.559 580.709 144.962C580.604 146.22 582.388 147.164 583.227 146.115C582.178 142.97 577.351 142.551 575.987 145.591C575.567 140.664 571.894 136.576 567.697 134.689C563.499 132.697 558.777 132.487 554.264 132.278C546.814 131.963 537.789 132.802 534.431 139.93C530.234 139.825 525.826 141.083 523.098 144.543C520.369 148.002 520.264 153.873 523.623 156.598C519.215 153.768 512.709 158.276 513.024 163.727C507.777 165.09 505.573 173.371 509.351 177.46C509.981 178.194 510.82 178.718 511.764 178.508C512.604 178.298 513.024 176.726 512.184 176.307C508.616 176.202 506.308 180.814 506.937 184.588C507.567 188.362 510.085 191.297 512.604 194.023C515.227 193.289 518.166 193.499 520.579 194.757L521.629 193.918Z" fill="#020203"/>
<path d="M565.284 158.276C564.654 160.896 564.969 164.146 566.753 166.243C568.327 168.13 570.845 168.759 572.944 167.71C574.098 167.186 574.938 166.243 575.358 164.985C575.672 165.195 575.987 165.509 576.302 165.719C575.358 166.453 575.043 167.71 575.148 168.864C575.358 170.226 576.197 171.38 577.247 172.009C580.185 173.686 583.438 172.218 586.061 170.751C586.796 170.331 587.426 171.484 586.691 171.904C584.068 173.371 581.024 174.629 578.086 173.791C575.672 173.057 573.679 170.96 573.888 168.13C573.993 166.662 574.518 165.404 575.672 164.566C576.092 164.251 576.722 164.775 576.617 165.299C575.777 168.235 572.944 169.702 570.321 169.493C567.277 169.283 565.074 166.662 564.234 163.622C563.709 161.735 563.814 159.848 564.234 157.961C564.339 157.123 565.493 157.437 565.284 158.276Z" fill="#020203"/>
<path d="M555.105 185.637C555.524 187.314 554.475 189.201 553.111 190.144C551.642 191.088 549.963 191.193 548.284 191.297C546.185 191.507 544.086 191.612 541.987 191.822C541.567 191.822 541.148 191.822 540.938 191.612C540.623 191.297 540.623 190.878 540.623 190.459C540.938 187.104 543.771 184.483 546.814 183.54C549.858 182.596 553.111 183.016 556.259 183.435C555.944 184.169 555.734 184.903 555.419 185.637H555.105Z" fill="#020203"/>
<path d="M568.852 192.346C568.432 194.023 569.481 195.91 570.845 196.853C572.315 197.797 573.994 197.902 575.673 198.007C577.771 198.216 579.87 198.321 581.969 198.531C582.389 198.531 582.808 198.531 583.018 198.321C583.333 198.007 583.333 197.587 583.333 197.168C583.018 193.813 580.185 191.193 577.142 190.249C574.098 189.306 570.845 189.725 567.697 190.144C568.012 190.878 568.222 191.612 568.537 192.346H568.852Z" fill="#020203"/>
<path d="M559.721 376.219C561.715 376.743 563.603 377.268 565.597 377.897C566.332 378.106 566.017 379.364 565.283 379.155C563.289 378.63 561.4 378.106 559.406 377.477C558.566 377.268 558.881 376.01 559.721 376.219Z" fill="#443822"/>
<path d="M559.826 379.888C561.715 380.622 563.604 381.356 565.493 382.09C565.808 382.195 566.018 382.509 565.913 382.928C565.808 383.243 565.493 383.557 565.178 383.348C563.289 382.614 561.4 381.88 559.511 381.146C559.197 381.042 558.987 380.727 559.092 380.308C559.092 380.098 559.512 379.784 559.826 379.888Z" fill="#443822"/>
<path d="M557.833 386.073C560.351 386.807 562.87 387.541 565.493 388.275C566.228 388.485 565.913 389.742 565.178 389.533C562.66 388.799 560.141 388.065 557.518 387.331C556.783 387.122 557.098 385.864 557.833 386.073Z" fill="#443822"/>
<path d="M561.296 392.573C562.87 392.154 564.549 392.573 565.704 393.726C565.913 393.936 565.913 394.46 565.704 394.67C565.494 394.879 565.074 394.879 564.864 394.67C564.759 394.565 564.759 394.565 564.654 394.46C564.654 394.46 564.549 394.46 564.549 394.355C564.444 394.25 564.234 394.145 564.13 394.041C564.025 394.041 564.025 393.936 563.92 393.936C564.025 393.936 563.92 393.936 563.92 393.936H563.815C563.605 393.831 563.5 393.831 563.29 393.831C563.185 393.831 563.185 393.831 563.08 393.831H562.975C563.08 393.831 562.87 393.831 562.87 393.831C562.66 393.831 562.555 393.831 562.346 393.831C562.241 393.831 562.136 393.831 562.136 393.831H562.031C561.926 393.831 562.136 393.831 562.031 393.831C561.821 393.831 561.716 393.936 561.506 393.936C561.191 394.041 560.771 393.831 560.771 393.516C560.771 392.992 560.981 392.678 561.296 392.573Z" fill="#443822"/>
<path d="M474.826 352.318C469.579 355.882 465.277 360.809 462.128 366.47C461.184 368.147 460.449 369.825 459.715 371.502C459.61 371.816 459.295 372.026 458.98 371.921C458.665 371.816 458.456 371.397 458.561 371.083C461.079 364.688 464.857 358.922 469.789 354.519C471.153 353.261 472.622 352.108 474.196 351.06C474.931 350.745 475.561 351.899 474.826 352.318Z" fill="#443822"/>
<path d="M510.61 352.318C518.271 347.286 526.141 342.778 534.326 338.795C542.406 334.811 550.697 331.352 559.197 328.416C564.024 326.739 568.851 325.271 573.678 324.013C574.413 323.804 574.832 325.062 573.993 325.271C565.388 327.578 556.888 330.408 548.598 333.868C540.308 337.222 532.122 341.206 524.252 345.609C519.845 348.125 515.437 350.745 511.135 353.576C510.505 353.89 509.876 352.737 510.61 352.318Z" fill="#443822"/>
<path d="M521 352.737C527.296 349.907 533.593 347.286 539.994 344.665C546.395 342.044 552.691 339.528 559.093 337.013C562.661 335.65 566.333 334.287 570.006 332.924C570.741 332.61 571.056 333.972 570.321 334.182C563.92 336.593 557.519 339.004 551.117 341.52C544.716 344.036 538.42 346.657 532.019 349.383C528.451 350.955 524.883 352.423 521.315 353.995C520.58 354.31 520.266 353.052 521 352.737Z" fill="#443822"/>
<path d="M541.252 446.037C544.401 449.182 547.654 452.222 550.802 455.367C551.327 455.891 551.222 456.73 550.802 457.254C550.277 457.778 549.543 457.778 549.018 457.254C545.87 454.109 542.617 451.069 539.469 447.924C538.944 447.4 539.049 446.561 539.469 446.037C539.993 445.513 540.728 445.513 541.252 446.037Z" fill="#BF9032"/>
<path d="M561.401 454.214C563.29 456.31 565.179 458.407 567.068 460.504C567.487 461.028 567.592 461.866 567.068 462.39C566.543 462.915 565.808 462.915 565.284 462.39C563.395 460.294 561.506 458.197 559.617 456.101C559.197 455.576 559.092 454.738 559.617 454.214C560.142 453.794 560.876 453.689 561.401 454.214Z" fill="#BF9032"/>
<path d="M557.413 430.103C559.826 431.885 561.925 434.191 563.499 436.917C563.814 437.546 563.604 438.384 563.079 438.803C562.45 439.118 561.715 438.908 561.4 438.279C561.19 437.965 561.085 437.65 560.876 437.441C560.771 437.231 560.666 437.126 560.561 437.021C560.561 436.917 560.456 436.917 560.456 436.812C560.351 436.602 560.561 436.917 560.456 436.812C560.036 436.288 559.616 435.659 559.197 435.134C558.777 434.61 558.252 434.191 557.727 433.667C557.622 433.562 557.518 433.457 557.308 433.352C557.308 433.352 556.993 433.143 557.203 433.352C557.098 433.247 557.098 433.247 556.993 433.143C556.678 432.933 556.468 432.723 556.153 432.514C555.629 432.094 555.314 431.36 555.734 430.627C556.048 430.103 556.783 429.788 557.413 430.103Z" fill="#BF9032"/>
<path d="M590.679 472.769C591.623 473.503 592.568 474.132 593.512 474.865C593.827 475.075 594.037 475.285 594.037 475.704C594.142 476.018 594.037 476.438 593.932 476.752C593.722 477.067 593.512 477.276 593.198 477.381C592.883 477.486 592.463 477.486 592.253 477.276C591.309 476.543 590.364 475.914 589.42 475.18C589.105 474.97 588.895 474.76 588.895 474.341C588.79 474.027 588.895 473.607 589 473.293C589.21 472.978 589.42 472.769 589.735 472.664C590.049 472.454 590.364 472.559 590.679 472.769Z" fill="#BF9032"/>
<path d="M704.012 440.376C702.438 442.787 700.863 445.198 699.289 447.609C698.87 448.133 698.24 448.553 697.61 448.133C697.086 447.819 696.771 446.875 697.191 446.246C698.765 443.835 700.339 441.424 701.913 439.013C702.333 438.489 702.962 438.07 703.592 438.489C704.012 438.908 704.326 439.852 704.012 440.376Z" fill="#BF9032"/>
<path d="M718.388 434.82C717.864 437.021 716.709 439.118 715.03 440.481C714.716 440.69 714.506 440.9 714.191 440.9C713.876 440.9 713.561 440.795 713.351 440.481C712.932 439.957 712.827 439.013 713.351 438.594C713.666 438.279 714.086 437.965 714.401 437.545C714.506 437.441 714.506 437.336 714.611 437.231L714.716 437.126C714.716 437.126 714.821 436.916 714.716 437.126C714.611 437.336 714.716 437.126 714.716 437.021L714.821 436.916C714.925 436.812 714.925 436.707 715.03 436.602C715.24 436.183 715.45 435.763 715.66 435.344C715.66 435.344 715.765 435.029 715.66 435.239C715.555 435.449 715.66 435.239 715.66 435.134C715.66 435.029 715.765 434.925 715.765 434.82C715.87 434.61 715.87 434.296 715.975 434.086C716.185 433.457 716.919 432.933 717.549 433.143C718.179 433.457 718.598 434.086 718.388 434.82Z" fill="#BF9032"/>
<path d="M499.487 486.502C501.061 488.913 502.635 491.324 504.209 493.735C504.629 494.259 504.314 495.203 503.789 495.622C503.159 495.936 502.53 495.727 502.11 495.098C500.536 492.687 498.962 490.275 497.388 487.864C496.968 487.34 497.283 486.397 497.808 485.977C498.437 485.663 499.067 485.977 499.487 486.502Z" fill="#BF9032"/>
<path d="M511.766 494.469C511.871 494.574 511.871 494.574 511.766 494.469L511.871 494.574C511.976 494.678 512.08 494.783 512.185 494.783C512.395 494.888 512.605 494.993 512.71 495.203C512.92 495.307 513.13 495.412 513.445 495.622C513.55 495.727 513.55 495.727 513.445 495.622C513.55 495.622 513.55 495.622 513.655 495.727C513.759 495.727 513.864 495.832 513.969 495.832C514.389 496.041 514.914 496.146 515.334 496.251C515.438 496.251 515.543 496.251 515.648 496.356C515.334 496.356 515.753 496.356 515.753 496.356C515.963 496.356 516.278 496.356 516.488 496.356C517.117 496.356 517.747 496.985 517.747 497.719C517.747 498.452 517.222 499.081 516.488 499.081C514.074 499.081 511.766 498.138 509.877 496.565C509.352 496.146 509.457 495.098 509.877 494.678C510.611 493.945 511.241 493.945 511.766 494.469Z" fill="#BF9032"/>
<path d="M491.091 450.649C491.091 450.754 491.196 450.964 491.196 451.069C491.196 450.964 491.091 450.859 491.196 450.964C491.196 451.069 491.301 451.069 491.301 451.173C491.406 451.383 491.511 451.698 491.616 451.907C491.826 452.431 492.141 452.851 492.455 453.27C492.56 453.375 492.455 453.27 492.455 453.165C492.455 453.27 492.56 453.27 492.56 453.375C492.665 453.48 492.665 453.585 492.77 453.689C492.98 453.899 493.085 454.109 493.295 454.318C493.505 454.528 493.61 454.738 493.82 454.843C493.925 454.947 494.029 455.052 494.134 455.157L494.239 455.262C494.03 455.052 494.134 455.262 494.239 455.262C494.554 455.472 494.764 455.681 494.764 456.101C494.869 456.415 494.764 456.834 494.659 457.149C494.344 457.673 493.505 458.092 492.98 457.673C490.986 456.101 489.622 454.004 488.678 451.593C488.468 450.964 488.888 450.125 489.517 449.916C490.357 449.496 490.881 449.916 491.091 450.649Z" fill="#BF9032"/>
<path d="M619.642 506.21C614.92 508.831 611.247 513.443 609.358 518.894C608.833 520.467 608.518 522.039 608.308 523.612C608.203 524.45 606.944 524.45 607.049 523.612C607.784 517.532 610.617 511.766 615.024 507.887C616.284 506.734 617.543 505.79 619.012 505.057C619.747 504.637 620.376 505.79 619.642 506.21Z" fill="#443822"/>
<path d="M554.266 533.151C560.037 535.982 564.759 541.223 567.278 547.513C568.013 549.295 568.537 551.182 568.957 553.069C569.167 553.908 567.908 554.222 567.803 553.384C566.543 546.884 563.08 541.014 558.148 537.135C556.784 535.982 555.21 535.038 553.636 534.304C552.901 533.99 553.531 532.837 554.266 533.151Z" fill="#443822"/>
<path d="M684.073 517.846C690.894 515.854 698.45 517.532 704.116 522.039C705.69 523.297 707.159 524.765 708.419 526.547C708.943 527.176 707.999 528.224 707.579 527.49C703.382 521.725 696.771 518.37 690.055 518.37C688.166 518.37 686.277 518.58 684.388 519.104C683.653 519.314 683.234 518.056 684.073 517.846Z" fill="#443822"/>
<path d="M756.482 506.315C754.488 508.097 753.648 510.822 753.544 513.548C753.544 516.693 754.698 519.628 756.167 522.249C757.111 523.926 758.161 525.499 759.105 527.071C759.525 527.805 758.476 528.434 758.056 527.7C754.593 522.459 750.71 516.064 753.019 509.355C753.544 507.782 754.383 506.315 755.642 505.266C756.167 504.742 757.111 505.686 756.482 506.315Z" fill="#443822"/>
<path d="M719.438 515.54C720.697 515.959 722.061 516.378 723.32 516.798C723.635 516.903 723.845 517.322 723.74 517.636C723.635 517.951 723.32 518.161 723.006 518.056C721.746 517.636 720.382 517.217 719.123 516.798C718.808 516.693 718.598 516.274 718.703 515.959C718.808 515.749 719.123 515.435 719.438 515.54Z" fill="#443822"/>
<path d="M720.593 511.975C721.222 511.975 721.852 511.975 722.481 511.975C722.796 511.975 723.111 512.29 723.111 512.604C723.111 512.919 722.796 513.233 722.481 513.233C721.852 513.233 721.222 513.233 720.593 513.233C720.278 513.233 719.963 512.919 719.963 512.604C719.963 512.29 720.278 511.975 720.593 511.975Z" fill="#443822"/>
<path d="M707.895 506.419C708.735 506.419 709.574 506.419 710.414 506.419C710.729 506.419 711.043 506.734 711.043 507.048C711.043 507.363 710.729 507.677 710.414 507.677C709.574 507.677 708.735 507.677 707.895 507.677C707.58 507.677 707.266 507.363 707.266 507.048C707.266 506.734 707.476 506.419 707.895 506.419Z" fill="#443822"/>
<path d="M578.296 527.176C579.765 526.023 581.234 524.87 582.703 523.717C583.018 523.507 583.438 523.717 583.543 523.926C583.752 524.241 583.543 524.66 583.333 524.87C581.864 526.023 580.394 527.176 578.925 528.329C578.61 528.539 578.191 528.329 578.086 528.119C577.876 527.7 577.981 527.386 578.296 527.176Z" fill="#443822"/>
<path d="M582.703 530.74C583.542 529.797 584.382 528.853 585.221 528.015C585.431 527.805 585.851 527.7 586.061 528.015C586.27 528.329 586.27 528.748 586.061 528.958C585.221 529.902 584.382 530.845 583.542 531.684C583.332 531.893 582.912 531.998 582.703 531.684C582.493 531.474 582.388 531.055 582.703 530.74Z" fill="#443822"/>
<path d="M588.37 516.274C589 515.435 589.735 514.491 590.364 513.653C590.574 513.338 590.994 513.443 591.204 513.653C591.414 513.967 591.414 514.282 591.204 514.596C590.574 515.435 589.839 516.378 589.21 517.217C589 517.532 588.58 517.427 588.37 517.217C588.16 517.007 588.16 516.588 588.37 516.274Z" fill="#443822"/>
<path d="M488.678 400.75C481.017 401.484 473.252 402.532 465.591 403.685C463.388 404 461.289 404.314 459.085 404.733C458.351 404.838 457.931 403.58 458.77 403.475C466.536 402.217 474.301 401.169 482.067 400.226C484.27 400.016 486.474 399.702 488.678 399.492C489.412 399.282 489.412 400.645 488.678 400.75Z" fill="#443822"/>
<path d="M462.549 324.538C462.129 327.368 461.814 330.094 461.395 332.924C461.395 333.239 460.975 333.448 460.66 333.343C460.345 333.239 460.135 332.924 460.24 332.505C460.66 329.674 460.975 326.949 461.395 324.118C461.395 323.804 461.814 323.594 462.129 323.699C462.549 323.804 462.654 324.118 462.549 324.538Z" fill="#443822"/>
<path d="M456.148 328.102C455.729 329.255 455.414 330.513 454.994 331.666C454.889 331.981 454.574 332.295 454.26 332.085C453.945 331.981 453.735 331.666 453.84 331.247C454.26 330.094 454.574 328.836 454.994 327.683C455.099 327.368 455.414 327.054 455.729 327.263C455.939 327.473 456.253 327.787 456.148 328.102Z" fill="#443822"/>
<path d="M466.116 300.636C465.382 303.886 464.752 307.031 464.018 310.281C463.808 311.119 462.653 310.805 462.863 309.966C463.598 306.716 464.227 303.571 464.962 300.322C465.067 299.378 466.221 299.693 466.116 300.636Z" fill="#443822"/>
<path d="M591.413 309.756C592.567 312.901 592.882 316.361 592.252 319.715C592.147 320.554 590.888 320.24 591.098 319.401C591.623 316.256 591.308 313.006 590.259 310.071C589.839 309.232 591.098 308.918 591.413 309.756Z" fill="#443822"/>
<path d="M584.383 307.45C584.803 308.603 585.117 309.861 585.537 311.014C585.642 311.329 585.432 311.748 585.117 311.853C584.803 311.958 584.488 311.748 584.383 311.434C583.963 310.281 583.648 309.023 583.228 307.87C583.124 307.555 583.333 307.136 583.648 307.031C583.963 306.926 584.278 307.136 584.383 307.45Z" fill="#443822"/>
<path d="M580.185 292.04C580.185 293.613 580.185 295.185 580.185 296.862C580.185 297.177 579.87 297.491 579.555 297.491C579.241 297.491 578.926 297.177 578.926 296.862C578.926 295.29 578.926 293.717 578.926 292.04C578.926 291.726 579.241 291.411 579.555 291.411C579.87 291.306 580.185 291.621 580.185 292.04Z" fill="#443822"/>
<path d="M584.591 345.923C584.591 347.076 584.591 348.334 584.591 349.487C584.591 349.802 584.276 350.221 583.962 350.116C583.647 350.116 583.332 349.802 583.332 349.487C583.332 348.334 583.332 347.076 583.332 345.923C583.332 345.609 583.647 345.189 583.962 345.294C584.276 345.294 584.591 345.504 584.591 345.923Z" fill="#443822"/>
<path d="M624.678 294.87C623.208 293.717 621.739 292.459 620.27 291.306C619.955 291.097 619.85 290.677 620.06 290.363C620.165 290.048 620.69 289.943 620.9 290.153C622.369 291.306 623.838 292.564 625.307 293.717C625.622 293.927 625.727 294.346 625.517 294.661C625.307 294.975 624.888 295.185 624.678 294.87Z" fill="#443822"/>
<path d="M627.932 305.773C626.462 304.934 624.993 304.096 623.524 303.362C623.209 303.152 623.104 302.733 623.314 302.418C623.524 302.104 623.839 301.999 624.154 302.209C625.623 303.047 627.092 303.886 628.561 304.62C628.876 304.829 628.981 305.249 628.771 305.563C628.666 305.773 628.246 305.878 627.932 305.773Z" fill="#443822"/>
<path d="M623.525 311.643C622.79 311.224 622.056 310.805 621.321 310.49C621.006 310.281 620.901 309.861 621.111 309.547C621.321 309.232 621.636 309.128 621.951 309.337C622.685 309.756 623.42 310.176 624.154 310.49C624.469 310.7 624.574 311.119 624.364 311.434C624.259 311.748 623.84 311.853 623.525 311.643Z" fill="#443822"/>
<path d="M610.197 281.871C608.728 281.033 607.259 280.299 605.79 279.46C605.475 279.251 605.37 278.831 605.58 278.517C605.79 278.202 606.105 278.098 606.419 278.307C607.889 279.146 609.358 279.88 610.827 280.718C611.142 280.928 611.247 281.347 611.037 281.662C610.827 281.976 610.512 282.081 610.197 281.871Z" fill="#443822"/>
</g>
<g clipPath="url(#clip2_12163_13105)">
<path d="M316.854 503.193C316.854 511.893 316.854 520.593 316.854 529.193C316.854 538.593 316.854 547.893 316.854 557.293C316.854 566.893 316.854 576.493 316.854 586.193C316.854 595.593 316.854 604.993 316.854 614.493C316.854 623.193 316.854 631.993 316.854 640.693C316.854 641.693 316.854 642.793 316.854 643.793C316.854 645.393 319.454 645.393 319.454 643.793C319.454 635.093 319.454 626.393 319.454 617.793C319.454 608.393 319.454 599.093 319.454 589.693C319.454 580.093 319.454 570.493 319.454 560.793C319.454 551.393 319.454 541.993 319.454 532.493C319.454 523.793 319.454 514.993 319.454 506.293C319.454 505.293 319.454 504.193 319.454 503.193C319.454 501.593 316.854 501.593 316.854 503.193Z" fill="#C7971A"/>
<path d="M317.354 593.293C313.054 587.793 305.354 586.693 299.454 582.993C294.654 579.993 291.154 574.993 289.854 569.493C289.454 567.893 289.354 565.893 290.654 564.893C291.854 563.893 293.654 564.293 295.054 564.893C306.854 569.193 316.054 580.093 318.254 592.493L317.354 593.293Z" fill="#C7971A"/>
<path d="M317.254 566.993C320.354 558.793 325.054 551.293 331.154 544.993C333.854 542.193 338.154 539.493 341.254 541.793C343.254 543.193 343.654 546.193 342.754 548.393C341.854 550.693 340.054 552.393 338.054 553.893C331.954 558.593 324.754 565.893 317.154 566.993H317.254Z" fill="#C7971A"/>
<path d="M318.054 545.593C313.754 537.793 307.554 530.893 300.254 525.793C298.354 524.493 295.954 523.293 293.954 524.293C292.054 525.193 291.454 527.693 292.054 529.693C292.654 531.693 294.154 533.293 295.754 534.593C302.254 540.393 310.454 544.293 319.054 545.893L318.054 545.593Z" fill="#C7971A"/>
<path d="M267.654 626.093C269.554 648.893 290.754 666.793 316.554 666.793C342.354 666.793 363.554 648.793 365.454 626.093H267.654Z" fill="#0A5A74"/>
<path d="M365.454 616.493H267.654V626.093H365.454V616.493Z" fill="#75BCB0"/>
<path d="M333.254 497.593C333.254 505.993 326.454 512.893 317.954 512.893C309.554 512.893 302.654 506.093 302.654 497.593C302.654 489.093 309.554 482.293 317.954 482.293C326.454 482.293 333.254 489.093 333.254 497.593Z" fill="#C7971A"/>
<path d="M327.855 497.593C327.855 503.093 323.455 507.493 317.955 507.493C312.455 507.493 308.055 503.093 308.055 497.593C308.055 492.093 312.455 487.693 317.955 487.693C323.455 487.693 327.855 492.093 327.855 497.593Z" fill="#F72326"/>
</g>
<defs>
<clipPath id="clip0_12163_13105">
<rect width="1008" height="607" fill="white" transform="translate(1123.36 586.317) rotate(165)"/>
</clipPath>
<clipPath id="clip1_12163_13105">
<rect width="493" height="549" fill="white" transform="translate(351 118.021)"/>
</clipPath>
<clipPath id="clip2_12163_13105">
<rect width="97.8" height="184.6" fill="white" transform="translate(267.654 482.293)"/>
</clipPath>
</defs>
</svg>
